<svg xmlns="http://www.w3.org/2000/svg" version="1.1" xmlns:xlink="http://www.w3.org/1999/xlink" width="512" height="512" x="0" y="0" viewBox="0 0 24 24" style="enable-background:new 0 0 512 512" xml:space="preserve" class=""><g><path d="M6.25 19.5a3.744 3.744 0 0 1-3.542-2.551l-.035-.115A3.648 3.648 0 0 1 2.5 15.75V8.932L.074 17.03a2.271 2.271 0 0 0 1.592 2.755l15.463 4.141c.193.05.386.074.576.074.996 0 1.906-.661 2.161-1.635l.901-2.865zM9 9c1.103 0 2-.897 2-2s-.897-2-2-2-2 .897-2 2 .897 2 2 2z" fill="#000000" opacity="1" data-original="#000000" class=""></path><path d="M21.5 2h-15A2.503 2.503 0 0 0 4 4.5v11C4 16.878 5.122 18 6.5 18h15c1.378 0 2.5-1.122 2.5-2.5v-11C24 3.122 22.878 2 21.5 2zm-15 2h15a.5.5 0 0 1 .5.5v7.099l-3.159-3.686a1.791 1.791 0 0 0-1.341-.615 1.749 1.749 0 0 0-1.336.631l-3.714 4.458-1.21-1.207a1.755 1.755 0 0 0-2.48 0L6 13.939V4.5a.5.5 0 0 1 .5-.5z" fill="#000000" opacity="1" data-original="#000000" class=""></path></g></svg>
