<svg width="564" height="564" viewBox="0 0 564 564" fill="none" xmlns="http://www.w3.org/2000/svg">
<rect x="13" y="13" width="538" height="538" rx="129" fill="white"/>
<rect x="13" y="13" width="538" height="538" rx="129" stroke="black" stroke-width="26"/>
<path fill-rule="evenodd" clip-rule="evenodd" d="M378.569 267.17C378.501 267.137 378.432 267.104 378.363 267.071C375.263 265.59 373.153 262.577 372.849 259.154C368.031 204.88 336.864 173.94 285.664 173.616C258.069 173.433 233.084 183.591 215.954 204.636C212.859 208.438 213.974 213.976 218.015 216.751L232.285 226.549C236.439 229.401 242.066 228.202 245.564 224.575C257.408 212.293 273.01 209.438 284.96 209.438H285.437C302.868 209.545 316.028 214.62 324.534 224.507C328.556 229.19 331.717 235.027 334.001 241.985C335.927 247.852 330.592 253.164 324.45 252.528C312.584 251.299 300.055 251.058 286.893 251.814C236.569 254.716 204.212 284.09 206.384 324.902C207.481 345.619 217.789 363.422 235.399 375.064C250.289 384.903 269.474 389.715 289.398 388.616C315.729 387.184 336.37 377.13 350.782 358.753C359.465 347.676 365.615 333.997 369.31 317.435C370.722 311.11 377.911 307.709 382.784 311.981C389.798 318.132 395.188 325.329 398.672 333.451C407.394 353.822 407.907 387.303 380.609 414.599C356.7 438.516 327.947 448.856 284.507 449.179C236.306 448.82 199.857 433.345 176.163 403.196C153.972 374.969 142.506 334.192 142.077 282C142.506 229.808 153.972 189.031 176.163 160.804C199.857 130.654 236.306 115.18 284.507 114.821C333.041 115.18 370.122 130.726 394.735 161.019C405.188 173.891 413.409 189.64 419.322 207.787C420.854 212.486 425.741 215.311 430.517 214.035L447.273 209.56C452.087 208.274 454.959 203.311 453.464 198.558C446.182 175.41 435.6 155.219 421.735 138.153C390.19 99.3107 344.065 79.4179 284.626 79H284.387C225.067 79.4179 179.444 99.3943 148.806 138.38C121.532 173.067 107.465 221.342 107 281.857V282.143C107.465 342.658 121.532 390.933 148.806 425.62C179.444 464.606 225.067 484.594 284.387 485H284.626C337.36 484.63 374.536 470.815 405.163 440.187C445.226 400.127 444.021 349.917 430.814 319.087C421.341 296.985 403.278 279.027 378.569 267.17ZM287.513 352.855C265.465 354.097 242.546 344.186 241.412 322.968C240.577 307.23 252.604 289.666 288.873 287.576C293.025 287.337 297.105 287.218 301.102 287.218C311.318 287.218 321.025 287.987 330.093 289.479C334.531 290.21 337.566 294.327 336.984 298.787C331.073 344.049 307.991 351.723 287.513 352.855Z" fill="black"/>
</svg>
